<?xml version="1.0" encoding="UTF-8"?>
<svg id="Layer_1" xmlns="http://www.w3.org/2000/svg" version="1.1" viewBox="0 0 568.9 673.2">
  <!-- Generator: Adobe Illustrator 29.7.1, SVG Export Plug-In . SVG Version: 2.1.1 Build 8)  -->
  <defs>
    <style>
      .st0 {
        fill: #f5f9fa;
      }

      .st1 {
        fill: #76c8c4;
      }

      .st2 {
        fill: #248190;
      }
    </style>
  </defs>
  <rect class="st0" width="568.9" height="673.2"/>
  <g>
    <path class="st1" d="M60.9,403.7s11.5-91,93.6-143.6c74.4-47.6,173.5-7.2,189.7.9,28.2,14.1,141.1,82.1,197.7-30,0,0-53.2,60.2-140.4,18.9-87.2-41.3-146.8-35.3-146.8-35.3,0,0-56.5-.3-100.8,29.5v-60.6s-4.2-62.3,62.6-65.4h268.6s39.4-5.4,40.1-47.1c.6-41.7-39.7-47-39.7-47H217S77.3,18.2,60.9,183.6v220.2Z"/>
    <path class="st2" d="M88.8,345.1s33.2-77.6,128.2-69.9c98.1,8,108,70.5,220.5,69.9,0,0,63.5-2.6,95.2-76.3,0,0-59.2,85.2-191.3,10.3-122.1-69.2-229.1-1-252.5,66Z"/>
    <path class="st2" d="M60.9,636.1v-143.9s6.4-144.2,156.1-152.9h93.7s37.7,11,38,47.1c.2,36.2-38,46.6-38,46.6l-47.1.2c-.3,0-47.1-.2-47.4-.2-9.5,0-62.7,17.3-62.7,63.9v69.6s-15.1,75.1-92.6,69.6Z"/>
  </g>
</svg>
svg
<?xml version="1.0" encoding="UTF-8"?>
<svg id="Layer_1" xmlns="http://www.w3.org/2000/svg" version="1.1" viewBox="0 0 568.9 673.2">
  <!-- Generator: Adobe Illustrator 29.7.1, SVG Export Plug-In . SVG Version: 2.1.1 Build 8)  -->
  <defs>
    <style>
      .st0 {
        fill: #f5f9fa;
      }

      .st1 {
        fill: #76c8c4;
      }

      .st2 {
        fill: #248190;
      }
    </style>
  </defs>
  <rect class="st0" width="568.9" height="673.2"/>
  <g>
    <path class="st1" d="M60.9,403.7s11.5-91,93.6-143.6c74.4-47.6,173.5-7.2,189.7.9,28.2,14.1,141.1,82.1,197.7-30,0,0-53.2,60.2-140.4,18.9-87.2-41.3-146.8-35.3-146.8-35.3,0,0-56.5-.3-100.8,29.5v-60.6s-4.2-62.3,62.6-65.4h268.6s39.4-5.4,40.1-47.1c.6-41.7-39.7-47-39.7-47H217S77.3,18.2,60.9,183.6v220.2Z"/>
    <path class="st2" d="M88.8,345.1s33.2-77.6,128.2-69.9c98.1,8,108,70.5,220.5,69.9,0,0,63.5-2.6,95.2-76.3,0,0-59.2,85.2-191.3,10.3-122.1-69.2-229.1-1-252.5,66Z"/>
    <path class="st2" d="M60.9,636.1v-143.9s6.4-144.2,156.1-152.9h93.7s37.7,11,38,47.1c.2,36.2-38,46.6-38,46.6l-47.1.2c-.3,0-47.1-.2-47.4-.2-9.5,0-62.7,17.3-62.7,63.9v69.6s-15.1,75.1-92.6,69.6Z"/>
  </g>
</svg>